# xmcd
#
# Track frame offsets: 
#        182
#        12592
#        25735
#        37020
#        50462
#        64165
#        77850
#        92087
#        103785
#        119135
#        138067
#        156862
#        172585
#        184852
#        199865
#        212910
#        226240
#        239590
#        258327
#        273020
#
# Disc length: 3797 seconds
#
# Revision: 4
# Processed by: cddbd v1.5.1PL0 Copyright (c) Steve Scherf et al.
# Submitted via: ExactAudioCopy v0.95a5
#
DISCID=160ed314
DTITLE=Tom T. Hall - The Essential Tom T. Hall: The Story Songs (Twent
DTITLE=ieth Anniversary Collection)
DYEAR=1998
DGENRE=Country
TTITLE0=The Year That Clayton Delaney Died
TTITLE1=It Sure Can Get Cold In Des Moines
TTITLE2=Ravishing Ruby
TTITLE3=The Little Lady Preacher
TTITLE4=A Week In A County Jail
TTITLE5=Ballad Of Forty Dollars
TTITLE6=The Hitchhiker
TTITLE7=Who's Gonna Feed Them Hogs
TTITLE8=Salute To A Switchblade
TTITLE9=Turn It On, Turn It On, Turn It On
TTITLE10=Old Dogs, Children And Watermelon Wine
TTITLE11=Coot Marseilles Blues
TTITLE12=Don't Forget The Coffee Billy Joe
TTITLE13=Homecoming
TTITLE14=Trip To Hyden
TTITLE15=The Ballad Of Bill Crump
TTITLE16=Second Handed Flowers
TTITLE17=She Gave Her Heart To Jethro
TTITLE18=Pay No Attention To Alice
TTITLE19=Before Jessie Died
EXTD=
EXTT0=
EXTT1=
EXTT2=
EXTT3=
EXTT4=
EXTT5=
EXTT6=
EXTT7=
EXTT8=
EXTT9=
EXTT10=
EXTT11=
EXTT12=
EXTT13=
EXTT14=
EXTT15=
EXTT16=
EXTT17=
EXTT18=
EXTT19=
PLAYORDER=
